<?xml version="1.0" encoding="UTF-8"?>
<!DOCTYPE svg PUBLIC "-//W3C//DTD SVG 1.1//EN" "http://www.w3.org/Graphics/SVG/1.1/DTD/svg11.dtd">
<!-- Creator: CorelDRAW 2017 -->
<svg xmlns="http://www.w3.org/2000/svg" xml:space="preserve" width="93.6mm" height="98.9mm" version="1.1" style="shape-rendering:geometricPrecision; text-rendering:geometricPrecision; image-rendering:optimizeQuality; fill-rule:evenodd; clip-rule:evenodd"
viewBox="0 0 9360 9890"
 xmlns:xlink="http://www.w3.org/1999/xlink">
 <defs>
  <style type="text/css">
   <![CDATA[
    .str0 {stroke:#CCCCCC;stroke-width:70.56;stroke-miterlimit:10}
    .fil5 {fill:none}
    .fil4 {fill:none;fill-rule:nonzero}
    .fil11 {fill:#210F03}
    .fil0 {fill:#2C3E50}
    .fil1 {fill:#B77C65;fill-rule:nonzero}
    .fil3 {fill:#A8735F;fill-rule:nonzero}
    .fil6 {fill:#A8735F;fill-rule:nonzero}
    .fil12 {fill:#2B1010;fill-rule:nonzero}
    .fil8 {fill:#2B1010;fill-rule:nonzero}
    .fil10 {fill:#965F4A;fill-rule:nonzero}
    .fil9 {fill:#965F4A;fill-rule:nonzero}
    .fil7 {fill:#B77C65;fill-rule:nonzero}
    .fil2 {fill:#E6E6E6;fill-rule:nonzero}
   ]]>
  </style>
    <clipPath id="id0">
     <path d="M4680 915.57c2561.59,0 4638.17,1963.52 4638.17,4385.66 0,2422.14 -2076.58,4385.66 -4638.17,4385.66 -2561.59,0 -4638.17,-1963.52 -4638.17,-4385.66 0,-2422.14 2076.58,-4385.66 4638.17,-4385.66z"/>
    </clipPath>
 </defs>
 <g id="Camada_x0020_1">
  <metadata id="CorelCorpID_0Corel-Layer"/>
  <g id="_2281644895856">
   <path class="fil0" d="M4680 915.57c2561.59,0 4638.17,1963.52 4638.17,4385.66 0,2422.14 -2076.58,4385.66 -4638.17,4385.66 -2561.59,0 -4638.17,-1963.52 -4638.17,-4385.66 0,-2422.14 2076.58,-4385.66 4638.17,-4385.66z"/>
   <g style="clip-path:url(#id0)">
    <g>
     <g>
      <path id="1" class="fil1" d="M8697.27 8115.83c-180.17,-128.12 -387.9,-222.21 -607.71,-283.46l-231.53 -61.87c1.52,-0.47 3.14,-0.87 4.64,-1.34l-1823.98 -595.96c-146.94,-39.79 -228.62,-160.55 -254.82,-295.73 -74.08,-382.36 -65.31,-1302.2 -63.34,-1466.3 0.15,-12.89 -11.52,-22.75 -25.95,-22.75l-87.26 0 -1809.52 0 -87.29 0c-14.41,0 -26.06,9.87 -25.93,22.75 1.75,162.47 9.15,1063.78 -63.31,1466.3 -24.39,135.46 -107.89,255.94 -254.83,295.73l-1823.98 595.96c1.53,0.49 3.19,0.89 4.74,1.37l-237.28 63.42c-189.21,52.73 -370.87,127.98 -530.5,232.93 -834.13,548.46 -858.12,1446.06 -892.69,1613.07 -2.95,14.3 9.28,27.21 25.54,27.21l4790.3 0 4790.29 0c16.26,0 28.49,-12.91 25.54,-27.21 -33.55,-162.14 -45.82,-1012.76 -821.13,-1564.12z"/>
      <path class="fil2" d="M8697.27 8115.83c-180.17,-128.12 -387.9,-222.21 -607.71,-283.46l-231.53 -61.87c1.52,-0.47 3.14,-0.87 4.64,-1.34l-1569.06 -512.68c-490.63,187.34 -1027.65,291.3 -1591.04,291.3 -563.4,0 -1100.42,-103.98 -1591.05,-291.3l-1569.06 512.68c1.53,0.49 3.19,0.89 4.74,1.37l-237.28 63.42c-189.21,52.73 -370.87,127.98 -530.5,232.93 -834.13,548.46 -858.12,1446.05 -892.69,1613.07 -2.95,14.3 9.28,27.21 25.54,27.21l4790.3 0 4790.29 0c16.26,0 28.49,-12.91 25.54,-27.21 -33.55,-162.14 -45.82,-1012.76 -821.13,-1564.12z"/>
      <path class="fil3" d="M5744.7 6536.73c-8.65,-428.41 -24.48,-830.81 -23.42,-939.65 0.15,-16.05 -11.52,-28.32 -25.93,-28.32l-1984.09 0c-14.41,0 -26.06,12.29 -25.93,28.34 0.94,108.61 -15.86,512.96 -24.9,942.63 141.74,148.49 667.36,359.69 1020.23,362.06 367.65,2.48 911.06,-247.68 1064.04,-365.06z"/>
      <path class="fil3" d="M4949.45 5499.1c0,-59.89 -110.48,-108.58 -246.81,-108.58 -136.28,0 -246.98,48.69 -246.98,108.58 0,60.14 110.7,64.94 246.98,64.94 136.33,0 246.81,-4.8 246.81,-64.94z"/>
      <g>
       <line class="fil4 str0" x1="4625" y1="7549.97" x2="4625" y2= "8466.89" />
       <line class="fil4 str0" x1="4735" y1="7549.97" x2="4735" y2= "8466.89" />
      </g>
     </g>
    </g>
   </g>
   <path class="fil5" d="M4680 915.57c2561.59,0 4638.17,1963.52 4638.17,4385.66 0,2422.14 -2076.58,4385.66 -4638.17,4385.66 -2561.59,0 -4638.17,-1963.52 -4638.17,-4385.66 0,-2422.14 2076.58,-4385.66 4638.17,-4385.66z"/>
   <g>
    <path class="fil6" d="M4458.83 4249.98c2.36,38.76 -10.37,76.28 -35.36,102.78 -66.94,71.03 -691.14,-39.65 -693.02,-149.5l-1.42 -68.86c-1.41,-79.04 187.64,-10.73 371.97,-4.26 175.85,6.18 347.46,-52.62 352.17,21.72l5.66 98.12z"/>
    <path class="fil6" d="M4926.03 4277.84c-1.41,37.73 12.73,74.12 38.66,99.43 70.72,68.13 711.88,-52.33 711.4,-159.4l-0.46 -67.37c-0.47,-77.03 -193.77,-6.79 -383.29,3.4 -181.51,9.24 -359.71,-44.83 -362.53,27.77l-3.78 96.17z"/>
   </g>
   <path class="fil7" d="M4707.57 978.57c-1803.91,-53.71 -2182.27,1180.47 -2243.98,2000.31 -106.42,-55.37 -218.13,-65.19 -317.86,-17.32 -237.99,114.24 -317.61,513.61 -177.84,892.01 110.26,298.52 324.13,614.34 526.36,678.33 482.45,2514.16 3857.18,2697.07 4396.86,5.49 207.93,-48.78 432.27,-375.54 546.14,-683.82 139.76,-378.4 60.16,-777.77 -177.85,-892.01 -96.71,-46.42 -204.7,-38.61 -308.2,12.41 -62.86,-819.85 -443.33,-2049.01 -2243.63,-1995.4z"/>
   <g>
    <path class="fil8" d="M3706.98 2730.54c162.83,0 294.83,164.42 294.83,367.22 0,202.79 -132,367.19 -294.83,367.19 -162.84,0 -294.84,-164.4 -294.84,-367.19 0,-202.8 132,-367.22 294.84,-367.22z"/>
    <path class="fil8" d="M5724.59 2730.44c162.84,0 294.84,164.4 294.84,367.2 0,202.81 -132,367.21 -294.84,367.21 -162.83,0 -294.84,-164.4 -294.84,-367.21 0,-202.8 132.01,-367.2 294.84,-367.2z"/>
   </g>
   <path class="fil9" d="M4541.95 5357.17c-337.78,-22.15 -621.55,-177.97 -697.97,-213.18l22.89 -17.23c148.27,68.53 1285.37,394.65 1670.13,-227.76l36.23 16.11c-226.91,367.49 -639.68,467.99 -1031.28,442.06z"/>
   <g>
    <g>
     <path class="fil10" d="M4625.44 4502.53c-26.61,8.1 -54.9,12.57 -83.22,13.34 -28.43,1.28 -56.92,-1.51 -85.24,-5.7 -28.29,-4.53 -56.12,-11.88 -83.67,-21.56 -13.76,-4.97 -27.49,-10.43 -41.02,-17.78 -6.81,-3.71 -13.56,-7.58 -20.54,-12.71 -6.98,-5.59 -14.27,-9.86 -22.59,-24.04l29.37 15.63c-25.39,4.36 -51.68,7.61 -79.09,6.93 -27.29,-0.97 -55.81,-5.5 -82.9,-17.04 -27.06,-11.25 -52.1,-29.12 -71.68,-50.94 -4.81,-5.46 -9.23,-11.25 -13.82,-16.92l-6.15 -9.03c-1.71,-2.54 -4.38,-7.58 -6.35,-11.37 -7.55,-15.38 -11.88,-31.16 -13.7,-47.2 -3.48,-32.08 2.64,-61.76 11.42,-87.98 8.81,-26.49 20.48,-50.33 33.1,-73.16 26.1,-44.98 55.67,-85.63 85.81,-125.23 14.96,-19.89 30.62,-39.06 46.33,-58.09l11.25 -13.62 11.42 -14.41c6.41,-8.8 12.82,-17.61 19.09,-27.5 24.53,-38.82 46.35,-80.85 63.1,-125.43 17.95,-44.19 31.68,-90.42 44.53,-137.29 12.11,-47.01 23.05,-94.76 31.39,-143.47 4.53,49.32 3.74,99.2 -0.77,148.83 -4.04,49.74 -13.16,99.17 -25.78,148.2 -13.67,48.6 -30.94,97.25 -56.72,142.67 -6.24,11.22 -13.5,22.76 -21,34.18l-10.57 15.07 -11.33 15.42 -43.22 58.66c-28.58,38.91 -56.01,78.37 -78.42,118.71 -22.49,39.4 -41.12,82.47 -37.73,116.72 1.91,17.29 7.21,29.35 21.03,46.52 12.5,15.32 27.74,27.35 45.52,35.96 35.75,16.97 81.19,19.05 127.43,14.69l29.37 15.65c-1.65,-2 1.71,3.04 5.41,6.03 3.82,3.51 8.72,7.06 13.74,10.49 10.23,6.75 21.28,13.47 32.85,19.51 23.16,12.19 48,21.97 73.3,30.71 25.29,8.81 51.47,15.25 78.17,20.12 26.72,4.58 53.96,7.2 81.88,6.43z"/>
    </g>
    <g>
     <path class="fil10" d="M4625.44 4502.53c55.72,1.08 109.31,-9.4 160.08,-26.55 25.29,-8.72 50.13,-18.52 73.3,-30.71 11.53,-6.04 22.65,-12.73 32.82,-19.57 4.98,-3.41 9.86,-7.04 13.64,-10.57 3.67,-3.02 7.01,-8.06 5.27,-6.01l29.69 -15.81c38.91,-3.65 73.5,-4.28 105.75,-9.52 8.15,-1.14 16.24,-2.54 24.24,-4.47 8.21,-1.57 16.35,-3.85 24.88,-6.44 4.3,-1.19 8.82,-2.36 13.01,-4.27 4.07,-1.94 9.21,-2.94 13.54,-5.13l14.26 -6.04c4.68,-2.34 9.84,-4.5 15.42,-6.69 -1.11,11.42 -3.67,22.95 -8.72,33.24 -4.53,10.72 -11.28,20.32 -18.94,29.37 -15.56,18.01 -36.73,31.37 -59.06,39.29 -11.2,3.94 -22.68,6.75 -34.13,8.24 -11.42,1.82 -22.87,2.01 -34.07,1.7 -22.43,-0.79 -43.94,-5.29 -64.07,-12.59l29.65 -15.81c-8.37,14.24 -15.73,18.52 -22.73,24.08 -7,5.09 -13.79,8.93 -20.62,12.61 -13.57,7.26 -27.3,12.76 -41.06,17.73 -27.58,9.68 -55.41,17.03 -83.7,21.56 -28.32,4.19 -56.78,6.98 -85.21,5.7 -28.35,-0.89 -56.66,-5.02 -83.24,-13.34z"/>
    </g>
   </g>
   <g>
    <path class="fil11" d="M5188.65 2333.55l5.08 259.67c1027.78,-150.4 547.66,-161.97 1217.34,8.45 -113.49,-506.15 -789.81,-376.31 -1222.42,-268.12z"/>
    <path class="fil11" d="M4163.99 2333.55l-5.08 259.67c-1027.78,-150.4 -547.66,-161.97 -1217.34,8.45 113.49,-506.15 789.81,-376.31 1222.42,-268.12z"/>
   </g>
   <path class="fil12" d="M5541.08 1468.03c-575.42,-12.83 -728.08,214.51 -2350.3,7.92 -599.47,715.47 -582.16,1596.81 -597.38,2472.48 -82.45,-236.97 -126.31,-499.61 -142.97,-767.45 3.85,-222.73 24.12,-492.34 83.1,-770.31 -53.54,-252.36 -92.08,-621.49 -42.62,-1108.87 0,0 389.19,-1605.01 3050.17,-935.22 0,0 1276.45,-89.3 1319.19,935.22 0,0 185.62,557.59 38.34,1150.66 52.39,263.13 70.87,516.98 74.52,728.52 -16.67,267.84 -60.53,530.48 -142.99,767.45 132.36,-371.64 -47.95,-1612.59 -484.06,-2399.29 -65.67,-118.45 -583.93,-116.54 -805,-81.11z"/>
  </g>
 </g>
</svg>
